{"title":"Le Mans(1971)MPEG-4[DaScubaDude]","uid":14853927,"size":1199834342,"categoryP":"video","categoryS":"movies","magnet":"?xt=urn:btih:3178d5f8428b29d3bb4914e39f78deefcb385642&amp;dn=Le+Mans%281971%29MPEG-4%5BDaScubaDude%5D&amp;tr=udp%3A%2F%2Ftracker.leechers-paradise.org%3A6969&amp;tr=udp%3A%2F%2Fzer0day.ch%3A1337&amp;tr=udp%3A%2F%2Fopen.demonii.com%3A1337&amp;tr=udp%3A%2F%2Ftracker.coppersurfer.tk%3A6969&amp;tr=udp%3A%2F%2Fexodus.desync.com%3A6969","seeders":1,"leechers":0,"uploader":"dascuba","files":1,"time":1465459630,"description":"Le Mans (1971)\r\nG | 1h 46min | Action, Adventure, Drama | 23 June 1971 (USA)\r\nAlmost in breadth and depth of a documentary, this movie depicts an auto race during the 70s on the world's hardest endurance course: Le Mans in France. The race goes over 24 hours on 14.5 ... \r\nDirector: Lee H. Katzin\r\nWriter: Harry Kleiner\r\nStars: Steve McQueen, Siegfried Rauch, Elga Andersen |\r\n\r\nGeneral\r\nComplete name                            : LeMansLE_MANS_Title1.mp4\r\nFormat                                   : MPEG-4\r\nFormat profile                           : Base Media\r\nCodec ID                                 : isom (isom/iso2/avc1/mp41)\r\nFile size                                : 1.12 GiB\r\nDuration                                 : 1h 48mn\r\nOverall bit rate mode                    : Variable\r\nOverall bit rate                         : 1 473 Kbps\r\nMovie name                               : LE_MANS\r\nGenre                                    : Action\r\nWriting application                      : Lavf54.6.100\r\n\r\nVideo\r\nID                                       : 1\r\nFormat                                   : AVC\r\nFormat/Info                              : Advanced Video Codec\r\nFormat profile                           :   \r\nFormat settings, CABAC                   : No\r\nFormat settings, ReFrames                : 6 frames\r\nFormat settings, GOP                     : N=1\r\nCodec ID                                 : avc1\r\nCodec ID/Info                            : Advanced Video Coding\r\nDuration                                 : 1h 48mn\r\nBit rate                                 : 1 203 Kbps\r\nWidth                                    : 720 pixels\r\nHeight                                   : 404 pixels\r\nDisplay aspect ratio                     : 16:9\r\nFrame rate mode                          : Constant\r\nFrame rate                               : 29.970 (30000/1001) fps\r\nColor space                              : YUV\r\nChroma subsampling                       : 4:2:0\r\nBit depth                                : 8 bits\r\nScan type                                : Progressive\r\nBits/(Pixel*Frame)                       : 0.138\r\nStream size                              : 935 MiB (82%)\r\n\r\nAudio\r\nID                                       : 2\r\nFormat                                   : AAC\r\nFormat/Info                              : Advanced Audio Codec\r\nFormat profile                           : LC\r\nCodec ID                                 : 40\r\nDuration                                 : 1h 48mn\r\nBit rate mode                            : Variable\r\nBit rate                                 : 265 Kbps\r\nMaximum bit rate                         : 339 Kbps\r\nChannel(s)                               : 2 channels\r\nChannel(s)_Original                      : 6 channels\r\nChannel positions                        : Front: L C R, Side: L R, LFE\r\nSampling rate                            : 44.1 KHz\r\nFrame rate                               : 43.066 fps (1024 spf)\r\nCompression mode                         : Lossy\r\nStream size                              : 204 MiB (18%)\r\nDefault                                  : Yes\r\nAlternate group                          : 1","torrent":{"xt":"urn:btih:3178d5f8428b29d3bb4914e39f78deefcb385642","amp;dn":"Le+Mans%281971%29MPEG-4%5BDaScubaDude%5D","amp;tr":["udp%3A%2F%2Ftracker.leechers-paradise.org%3A6969","udp%3A%2F%2Fzer0day.ch%3A1337","udp%3A%2F%2Fopen.demonii.com%3A1337","udp%3A%2F%2Ftracker.coppersurfer.tk%3A6969","udp%3A%2F%2Fexodus.desync.com%3A6969"],"infoHash":"3178d5f8428b29d3bb4914e39f78deefcb385642","infoHashBuffer":{"type":"Buffer","data":[49,120,213,248,66,139,41,211,187,73,20,227,159,120,222,239,203,56,86,66]},"announce":[],"urlList":[]}}